<?xml version="1.0" encoding="UTF-8"?>
<svg id="Layer_2" data-name="Layer 2" xmlns="http://www.w3.org/2000/svg" viewBox="0 0 172.92 39.03">
  <defs>
    <style>
      .cls-1 {
        fill: #fff;
      }
    </style>
  </defs>
  <g id="Layer_1-2" data-name="Layer 1">
    <g>
      <polygon class="cls-1" points="20.94 38.78 0 39.03 32.75 .26 40.14 0 20.94 38.78"/>
      <polygon class="cls-1" points="41.98 38.9 63.44 38.9 42.1 .13 25.74 38.9 41.98 38.9"/>
      <g>
        <path class="cls-1" d="M68.42,10.94l3.27-.45c.24,1.71,1,2.4,2.6,2.4,1.26,0,1.95-.61,1.95-1.69,0-1.16-.96-1.61-2.78-2.05-2.7-.65-4.59-1.52-4.59-4.29s2.07-4.41,5.35-4.41c2.95,0,4.7,1.5,5.1,4.31l-3.15.47c-.18-1.55-.89-2.32-2.13-2.32-1.16,0-1.79.55-1.79,1.55s.63,1.5,2.4,1.95c2.07.55,4.78,1.04,4.78,4.33,0,2.87-2.03,4.66-5.29,4.66-3.52,0-5.31-1.42-5.73-4.47Z"/>
        <path class="cls-1" d="M81.04.72h3.09v7.93l3.07-3.62h3.56l-3.42,3.56,3.76,6.57h-3.56l-2.36-4.39-1.04,1.08v3.31h-3.09V.72Z"/>
        <path class="cls-1" d="M91.45,18.73l.3-2.01c.37.1.73.16,1.1.16.79,0,1.32-.41,1.75-1.67l.04-.16-3.54-10.02h3.29l1.75,7.07h.06l1.77-7.07h3.17l-3.46,10c-1.02,3.01-1.95,3.98-4.23,3.98-.75,0-1.63-.14-1.99-.28Z"/>
        <path class="cls-1" d="M102.44.72h3.19v5.94h4.92V.72h3.21v14.45h-3.21v-5.87h-4.92v5.87h-3.19V.72Z"/>
        <path class="cls-1" d="M116.04.72h3.11v2.5h-3.11V.72ZM116.04,5.03h3.11v10.14h-3.11V5.03Z"/>
        <path class="cls-1" d="M121.08,16.08l2.81-.51c.16.67.41,1.26,1.59,1.26,1.32,0,1.97-.71,1.97-2.44v-.89h-.06c-.37.67-1.24,1.36-2.78,1.36-2.09,0-3.88-1.16-3.88-4.74s1.81-5.31,4.17-5.31c1.38,0,2.13.49,2.62,1.3h.06l.28-1.06h2.64v9.09c0,3.29-1.83,4.88-5.08,4.88-2.52,0-3.96-1.02-4.35-2.93ZM127.52,9.92c0-2.18-.61-3.11-1.71-3.11s-1.85.93-1.85,3.21c0,2.17.65,2.87,1.73,2.87,1.22,0,1.83-.89,1.83-2.97Z"/>
        <path class="cls-1" d="M132.46.72h3.07v5.59h.06c.49-.71,1.34-1.52,2.97-1.52,2.07,0,3.35,1.28,3.35,4.23v6.14h-3.09v-5.96c0-1.14-.24-2.11-1.42-2.11-1.38,0-1.83,1-1.83,2.38v5.69h-3.11V.72Z"/>
        <path class="cls-1" d="M72.79,24.35h4l4.84,14.45h-3.27l-1.1-3.35h-5l-1.08,3.35h-3.15l4.76-14.45ZM76.57,33.05l-1.81-5.77h-.06l-1.79,5.77h3.66Z"/>
        <path class="cls-1" d="M82.2,33.94c0-3.54,1.61-5.51,4.15-5.51,1.34,0,2.01.53,2.48,1.2h.04v-5.28h3.07v14.45h-2.7l-.24-1.28h-.04c-.43.83-1.46,1.52-2.76,1.52-2.36,0-4.01-1.38-4.01-5.1ZM88.95,33.7c0-2.46-.63-3.27-1.71-3.27-1.18,0-1.85.89-1.85,3.48,0,2.26.59,3.15,1.73,3.15,1.22,0,1.83-1.04,1.83-3.37Z"/>
        <path class="cls-1" d="M92.93,28.66h3.25l1.81,7.38h.04l1.83-7.38h3.15l-3.27,10.14h-3.56l-3.25-10.14Z"/>
        <path class="cls-1" d="M103.4,33.84c0-3.39,1.93-5.41,5.18-5.41s4.72,2.2,4.31,5.83h-6.32c0,1.36.41,2.58,1.93,2.58.93,0,1.57-.45,1.73-1.55l2.6.24c-.45,2.76-2.54,3.52-4.45,3.52-3.5,0-4.98-2.15-4.98-5.2ZM110.02,32.62c.06-1.16-.31-2.18-1.59-2.18s-1.79.98-1.85,2.18h3.44Z"/>
        <path class="cls-1" d="M114.53,28.66h2.83l.08,1.48h.06c.39-.75,1.26-1.71,3.09-1.71,2.07,0,3.39,1.18,3.39,4.11v6.26h-3.09v-5.98c0-1.52-.47-2.09-1.42-2.09-1.42,0-1.83,1.04-1.83,2.4v5.67h-3.11v-10.14Z"/>
        <path class="cls-1" d="M126.18,35.37v-4.63h-1.18v-2.09h1.18v-2.07l3.09-.85v2.91h2.15v2.09h-2.15v4.23c0,1.32.31,1.81,1.3,1.81.31,0,.65-.06,1.06-.18l.28,2.07c-.47.2-1.24.35-2.18.35-2.22,0-3.54-.98-3.54-3.66Z"/>
        <path class="cls-1" d="M133.09,34.98v-6.32h3.09v6.06c0,1.34.41,2.03,1.38,2.03,1.42,0,1.81-1.2,1.81-2.68v-5.41h3.09v10.14h-2.8l-.12-1.48h-.04c-.47.79-1.28,1.71-3.07,1.71-2.11,0-3.35-1.18-3.35-4.05Z"/>
        <path class="cls-1" d="M144.45,28.66h2.83l.12,1.44h.02c.37-.81,1.14-1.67,2.8-1.67,1.93,0,2.91,1.28,2.5,4.19l-2.99.16c.18-1.46-.06-1.99-.75-1.99-1.1,0-1.42,1.14-1.42,2.64v5.37h-3.11v-10.14Z"/>
        <path class="cls-1" d="M153.61,33.84c0-3.39,1.93-5.41,5.18-5.41s4.72,2.2,4.31,5.83h-6.32c0,1.36.41,2.58,1.93,2.58.92,0,1.57-.45,1.73-1.55l2.6.24c-.45,2.76-2.54,3.52-4.45,3.52-3.5,0-4.98-2.15-4.98-5.2ZM160.22,32.62c.06-1.16-.31-2.18-1.59-2.18s-1.79.98-1.85,2.18h3.44Z"/>
        <path class="cls-1" d="M164.08,35.98l2.7-.37c.16.93.51,1.5,1.67,1.5.96,0,1.42-.43,1.42-1.08,0-2.05-5.47-.31-5.47-4.29,0-2.13,1.95-3.31,4.29-3.31s3.76.98,4.09,2.91l-2.64.43c-.14-.87-.55-1.38-1.48-1.38-.83,0-1.3.31-1.3.94,0,1.97,5.55.18,5.55,4.23,0,2.32-2.13,3.46-4.49,3.46-2.56,0-4.05-.9-4.35-3.05Z"/>
      </g>
    </g>
  </g>
</svg>